<svg fill="none" height="30" viewBox="2 0 153 30" width="151" xmlns="http://www.w3.org/2000/svg">
<path d="M41.4807 21.1538C37.4423 21.1538 33.623 18.9231 33.623 14.4923C33.623 10.0615 37.173 7.75769 41.1615 7.75769C43.5461 7.76923 45.8577 8.6 47.7 10.1154L46.5577 11.9231C44.8077 10.7077 43.3731 9.92692 41.173 9.92692C38.4461 9.92692 35.7461 11.5115 35.7461 14.5C35.7461 17.6385 38.6423 19 41.4154 19C43.3807 19.0038 45.3 18.3846 46.8884 17.2269L47.8346 19.1962C45.9807 20.5115 43.7538 21.1962 41.4807 21.1538Z" fill="white"/>
<path d="M53.127 20.7192V8.12308H64.2193V10.2615H55.2693V13.1538H60.1808V15.2962H55.2693V18.5808H64.4654V20.7192H53.127Z" fill="white"/>
<path d="M78.4769 20.7192L70.5962 11.3577V20.7192H68.4539V8.12308H70.6192L78.4769 17.4615V8.12308H80.6154V20.7192H78.4769Z" fill="white"/>
<path d="M90.8385 10.2615V20.7192H88.6731V10.2615H83.9077V8.12308H95.7039V10.2615H90.8385Z" fill="white"/>
<path d="M109.712 20.7192L106.062 15.5654H101.662V20.7192H99.4962V8.12308H107.277C109.835 8.12308 112.073 8.92308 112.073 11.8423C112.073 13.9846 110.758 15.2462 108.689 15.5154L112.362 20.7192H109.712ZM107.377 10.2615H101.662V13.4231H107.496C108.689 13.4231 109.931 13.1808 109.931 11.7462C109.931 10.6769 109.419 10.2615 107.377 10.2615Z" fill="white"/>
<path d="M127.862 20.7192L126.258 17.7769H118.565L117.027 20.7192H114.596L121.404 8.12308H123.546L130.404 20.7192H127.862ZM122.438 10.5308L119.688 15.6615H125.188L122.438 10.5308Z" fill="white"/>
<path d="M142.358 20.7192L137.592 14.1538L135.231 16.2462V20.7192H133.092V8.12308H135.231V13.7154L141.385 8.12308H144.131L139.269 12.7385L144.985 20.7154H142.358V20.7192Z" fill="white"/>
<path d="M146.661 8.07692C147.869 8.07692 148.85 9.05769 148.85 10.2654C148.85 11.4731 147.869 12.4538 146.661 12.4538C145.454 12.4538 144.473 11.4731 144.473 10.2654C144.473 9.05769 145.454 8.07692 146.661 8.07692ZM146.635 8.51538C145.673 8.52307 144.9 9.30769 144.908 10.2731C144.915 11.2346 145.7 12.0077 146.665 12C147.592 11.9923 148.338 11.2385 148.331 10.3115C148.331 10.3 148.331 10.2846 148.331 10.2731C148.361 9.33461 147.627 8.55 146.688 8.51538C146.677 8.51538 146.665 8.51538 146.654 8.51538H146.638H146.635ZM146.3 11.3885H145.785V9.23077C146.061 9.18846 146.342 9.16538 146.623 9.16153C146.885 9.13461 147.146 9.19615 147.369 9.33846C147.515 9.44615 147.6 9.61923 147.592 9.8C147.581 10.0577 147.396 10.2731 147.142 10.3231V10.3462C147.358 10.4154 147.461 10.5885 147.527 10.8769C147.554 11.0615 147.604 11.2423 147.685 11.4115H147.169C147.081 11.2462 147.023 11.0654 146.996 10.8769C146.954 10.6538 146.823 10.5462 146.542 10.5462H146.3V11.3885ZM146.3 10.1654H146.554C146.835 10.1654 147.061 10.0692 147.061 9.84615C147.061 9.62307 146.915 9.51153 146.596 9.51153C146.5 9.51153 146.408 9.51923 146.315 9.5423L146.3 10.1654Z" fill="white"/>
<path d="M17.7346 12.8962C16.3616 11.5231 14.1346 11.5231 12.7616 12.8962C11.3885 14.2692 11.3885 16.4962 12.7616 17.8692C14.1346 19.2423 16.3577 19.2423 17.7308 17.8692C19.1039 16.4962 19.1039 14.2692 17.7308 12.8962H17.7346ZM27.4539 13.3077C26.7423 8.08846 22.8346 3.87308 17.6846 2.76538C17.6154 4.88846 18.0923 10.3846 19.1539 11.4462C20.2154 12.5077 25.4962 13.3538 27.4539 13.3077ZM12.8846 2.69231C7.54232 3.64231 3.42309 7.92692 2.68848 13.3038C4.65386 13.3538 10.2346 12.4385 11.3154 11.3577C12.3962 10.2769 12.9808 4.61538 12.8846 2.69231ZM17.6808 27.2346C22.5539 26.1885 26.3423 22.3538 27.3269 17.4692C25.4039 17.4154 20.45 18.2385 19.2846 19.2C17.8692 20.3846 17.5769 25.2269 17.6808 27.2346ZM2.80386 17.4692C3.82309 22.5077 7.8154 26.4077 12.8769 27.3077C12.9769 25.4577 12.4 20.4692 11.3116 19.3808C10.2231 18.2923 4.74232 17.4154 2.80386 17.4692Z" fill="white"/>
</svg>
